<svg width="48" height="48" viewBox="0 0 48 48" fill="none" xmlns="http://www.w3.org/2000/svg">
<path d="M39 3H45V9H39V3ZM39 12H45V18H39V12ZM30 3H36V9H30V3ZM30 12H36V18H30V12Z" fill="#48A7F5"/>
<path d="M42 24V33H6V9H24V6H6C5.20435 6 4.44129 6.31607 3.87868 6.87868C3.31607 7.44129 3 8.20435 3 9V33C3 33.7956 3.31607 34.5587 3.87868 35.1213C4.44129 35.6839 5.20435 36 6 36H18V42H12V45H36V42H30V36H42C42.7957 36 43.5587 35.6839 44.1213 35.1213C44.6839 34.5587 45 33.7956 45 33V24H42ZM27 42H21V36H27V42Z" fill="#48A7F5"/>
</svg>
