<svg width="48" height="48" viewBox="0 0 48 48" fill="none" xmlns="http://www.w3.org/2000/svg">
<g clip-path="url(#clip0_19_250)">
<path d="M38 8C39.0609 8 40.0783 8.42143 40.8284 9.17157C41.5786 9.92172 42 10.9391 42 12V36C42 37.0609 41.5786 38.0783 40.8284 38.8284C40.0783 39.5786 39.0609 40 38 40H10C8.93913 40 7.92172 39.5786 7.17157 38.8284C6.42143 38.0783 6 37.0609 6 36V12C6 10.9391 6.42143 9.92172 7.17157 9.17157C7.92172 8.42143 8.93913 8 10 8H38ZM38 20H10V34C10.0001 34.4899 10.1799 34.9627 10.5054 35.3287C10.8309 35.6948 11.2795 35.9287 11.766 35.986L12 36H36C36.4899 35.9999 36.9627 35.8201 37.3287 35.4946C37.6948 35.1691 37.9287 34.7205 37.986 34.234L38 34V20ZM12 12C11.4696 12 10.9609 12.2107 10.5858 12.5858C10.2107 12.9609 10 13.4696 10 14C10 14.5304 10.2107 15.0391 10.5858 15.4142C10.9609 15.7893 11.4696 16 12 16C12.5304 16 13.0391 15.7893 13.4142 15.4142C13.7893 15.0391 14 14.5304 14 14C14 13.4696 13.7893 12.9609 13.4142 12.5858C13.0391 12.2107 12.5304 12 12 12ZM18 12C17.4696 12 16.9609 12.2107 16.5858 12.5858C16.2107 12.9609 16 13.4696 16 14C16 14.5304 16.2107 15.0391 16.5858 15.4142C16.9609 15.7893 17.4696 16 18 16C18.5304 16 19.0391 15.7893 19.4142 15.4142C19.7893 15.0391 20 14.5304 20 14C20 13.4696 19.7893 12.9609 19.4142 12.5858C19.0391 12.2107 18.5304 12 18 12ZM24 12C23.4696 12 22.9609 12.2107 22.5858 12.5858C22.2107 12.9609 22 13.4696 22 14C22 14.5304 22.2107 15.0391 22.5858 15.4142C22.9609 15.7893 23.4696 16 24 16C24.5304 16 25.0391 15.7893 25.4142 15.4142C25.7893 15.0391 26 14.5304 26 14C26 13.4696 25.7893 12.9609 25.4142 12.5858C25.0391 12.2107 24.5304 12 24 12Z" fill="#48A7F5"/>
</g>
<defs>
<clipPath id="clip0_19_250">
<rect width="48" height="48" fill="white"/>
</clipPath>
</defs>
</svg>
